<svg width="520" height="218" viewBox="0 0 520 218" xmlns="http://www.w3.org/2000/svg" role="img" aria-label="GitHub stats for Abhishek5127">
  <defs>
    <linearGradient id="bgA" x1="0" y1="0" x2="1" y2="1">
      <stop offset="0%" stop-color="#0a1220" />
      <stop offset="100%" stop-color="#0f172a" />
    </linearGradient>
  </defs>
  <style>
    .title { fill: #e5edf7; font: 700 18px 'Segoe UI', Ubuntu, sans-serif; }
    .meta { fill: #8fa0b8; font: 500 11px 'Segoe UI', Ubuntu, sans-serif; }
    .label { fill: #9eb0ca; font: 600 11px 'Segoe UI', Ubuntu, sans-serif; }
    .value { fill: #f8fbff; font: 700 16px 'Segoe UI', Ubuntu, sans-serif; }
  </style>
  <rect width="520" height="218" rx="14" fill="url(#bgA)" />
  <rect x="8" y="8" width="504" height="202" rx="10" fill="none" stroke="#1f2b3d" />
  <text x="20" y="34" class="title">Abhishek5127 - GitHub Stats</text>
  <text x="20" y="52" class="meta">Last generated: 2026-03-01 13:09 UTC</text>
  
    <g>
      <rect x="20" y="72" width="150" height="56" rx="10" fill="#111927" stroke="#233247" />
      <text x="32" y="94" class="label">Public Repos</text>
      <text x="32" y="115" class="value">5</text>
    </g>
    <g>
      <rect x="182" y="72" width="150" height="56" rx="10" fill="#111927" stroke="#233247" />
      <text x="194" y="94" class="label">Followers</text>
      <text x="194" y="115" class="value">2</text>
    </g>
    <g>
      <rect x="344" y="72" width="150" height="56" rx="10" fill="#111927" stroke="#233247" />
      <text x="356" y="94" class="label">Following</text>
      <text x="356" y="115" class="value">2</text>
    </g>
    <g>
      <rect x="20" y="140" width="150" height="56" rx="10" fill="#111927" stroke="#233247" />
      <text x="32" y="162" class="label">Stars</text>
      <text x="32" y="183" class="value">0</text>
    </g>
    <g>
      <rect x="182" y="140" width="150" height="56" rx="10" fill="#111927" stroke="#233247" />
      <text x="194" y="162" class="label">Forks</text>
      <text x="194" y="183" class="value">0</text>
    </g>
    <g>
      <rect x="344" y="140" width="150" height="56" rx="10" fill="#111927" stroke="#233247" />
      <text x="356" y="162" class="label">Contributions (1y)</text>
      <text x="356" y="183" class="value">381</text>
    </g>
</svg>
